<?xml version="1.0" encoding="UTF-8"?>
<svg version="1.1" xmlns="http://www.w3.org/2000/svg" width="624" height="624">
<path d="M0 0 C1.09539093 0.00054382 2.19078186 0.00108765 3.31936646 0.00164795 C21.45878957 0.04290129 38.89331525 1.03556805 56.75 4.375 C58.44044434 4.68050781 58.44044434 4.68050781 60.16503906 4.9921875 C110.5440894 14.35428231 158.16968983 36.98043004 197.75 69.375 C198.33056152 69.83986816 198.91112305 70.30473633 199.50927734 70.78369141 C208.04234602 77.62371084 215.81360302 85.23615079 223.5625 92.9375 C224.05100433 93.42064667 224.53950867 93.90379333 225.04281616 94.40158081 C231.74043482 101.04338245 237.91534823 107.95984925 243.75 115.375 C244.32435791 116.09534424 244.89871582 116.81568848 245.49047852 117.55786133 C297.39228976 183.02482844 320.60128759 267.03541443 311.23046875 349.99267578 C303.22055118 412.85812399 277.11457585 472.14628928 234.75 519.375 C234.29028809 519.8911084 233.83057617 520.4072168 233.35693359 520.93896484 C224.04251423 531.37018937 214.4765628 541.47951414 203.5 550.1796875 C200.68542965 552.42654621 197.97510985 554.77080788 195.25 557.125 C141.61579894 601.85494978 70.41094907 624.57544609 1.1875 624.625 C-0.09415543 624.62601212 -0.09415543 624.62601212 -1.40170288 624.62704468 C-72.20646628 624.53888169 -141.30442188 600.14358329 -196.25 555.375 C-197.05872559 554.72072021 -197.05872559 554.72072021 -197.88378906 554.05322266 C-206.77747065 546.78944855 -214.98950299 538.84063513 -223.125 530.75 C-223.61127869 530.26898834 -224.09755737 529.78797668 -224.59857178 529.29238892 C-231.27722585 522.66977377 -237.42725554 515.76517872 -243.25 508.375 C-243.98041504 507.46403564 -243.98041504 507.46403564 -244.72558594 506.53466797 C-251.42141504 498.15828601 -257.4863423 489.41298103 -263.25 480.375 C-263.80421631 479.50633301 -263.80421631 479.50633301 -264.36962891 478.62011719 C-286.80835289 443.09297719 -301.2596591 403.75483777 -308.25 362.375 C-308.41371094 361.47958496 -308.57742188 360.58416992 -308.74609375 359.66162109 C-314.26468377 328.72217066 -313.91940555 293.26081518 -308.25 262.375 C-308.07839355 261.3746875 -307.90678711 260.374375 -307.72998047 259.34375 C-305.02032906 243.69121494 -301.1200817 228.48975675 -296.25 213.375 C-295.96318359 212.4778125 -295.67636719 211.580625 -295.38085938 210.65625 C-287.97418672 187.91793214 -277.24760346 165.4556214 -264.25 145.375 C-263.51813477 144.24408936 -263.51813477 144.24408936 -262.77148438 143.09033203 C-253.37484817 128.71745729 -242.96323781 115.28168 -231.33203125 102.64453125 C-229.95295256 101.14125786 -228.59559506 99.61774163 -227.26171875 98.07421875 C-216.72016135 85.94447945 -204.68414065 75.2417338 -191.85986328 65.59082031 C-190.33186626 64.43682802 -188.81972404 63.26193 -187.30859375 62.0859375 C-149.15713474 32.70671873 -103.55674073 13.46219014 -56.375 4.5625 C-55.3432666 4.3675293 -54.3115332 4.17255859 -53.24853516 3.97167969 C-35.53108718 0.8230218 -17.96972724 -0.03373125 0 0 Z " fill="#7890F0" transform="translate(311.25,-0.375)"/>
<path d="M0 0 C5.10503878 4.05727973 8.11463247 8.78096701 9.30859375 15.2265625 C11.91978526 42.59184949 -3.63811137 68.88469036 -20.19848633 89.49243164 C-35.53395987 108.05528973 -55.1890535 115.14885002 -77.44116211 122.27636719 C-96.65782516 128.46720693 -114.22773778 134.74363037 -124.2109375 153.421875 C-142.25829387 194.53277139 -115.12224071 250.35261274 -101.8298645 289.59127808 C-98.15882406 300.42842692 -94.67211404 311.23576931 -92.2109375 322.421875 C-91.96988281 323.50339844 -91.72882813 324.58492188 -91.48046875 325.69921875 C-87.69552857 345.84322922 -89.04410742 368.77107906 -100.2109375 386.421875 C-108.09513699 397.90467177 -118.97717333 406.22827295 -132.6484375 409.796875 C-144.58860651 411.89505687 -156.19854475 410.7649608 -166.33984375 403.84765625 C-176.22877527 396.31224914 -181.3503291 386.14220455 -183.734375 373.9921875 C-186.4658924 353.52819647 -180.85947381 334.04900475 -176.0234375 314.296875 C-167.14372174 277.77249836 -169.5077021 238.15896177 -187.2109375 204.421875 C-192.34957236 196.23509537 -199.71003726 188.15942253 -209.2109375 185.421875 C-218.77681707 183.74940913 -226.37418166 187.28360776 -234.2109375 192.421875 C-241.41177778 197.49030223 -248.31471203 202.95043179 -255.2109375 208.421875 C-256.46180364 209.40810525 -257.71305247 210.39385051 -258.96484375 211.37890625 C-260.60948573 212.673868 -262.25397302 213.96900306 -263.89672852 215.26635742 C-318.5434954 258.29978531 -318.5434954 258.29978531 -342.3984375 257.421875 C-351.20474416 256.31818221 -358.1909345 252.681667 -363.74609375 245.71484375 C-366.41328174 241.53980549 -367.90042465 237.17660002 -369.2109375 232.421875 C-369.54931641 231.21144531 -369.54931641 231.21144531 -369.89453125 229.9765625 C-375.54609127 205.10969842 -368.44648716 178.66215829 -355.2109375 157.421875 C-339.65245984 134.51711435 -317.95054762 116.7336261 -290.46166992 110.84545898 C-279.94772281 108.86675216 -269.51606128 108.05212739 -258.85415649 107.5887146 C-207.60183837 105.29429542 -172.75080771 86.36847622 -134.03759766 53.5012207 C-129.81840447 49.92256304 -125.5555676 46.40213148 -121.2578125 42.91796875 C-118.95760588 41.03356871 -116.68095691 39.13074616 -114.4140625 37.20703125 C-88.24389609 15.11424674 -35.49713643 -24.04188523 0 0 Z " fill="#FFFFFF" transform="translate(462.2109375,109.578125)"/>
</svg>
