<?xml version="1.0" standalone="no"?>
<!DOCTYPE svg PUBLIC "-//W3C//DTD SVG 20010904//EN"
 "http://www.w3.org/TR/2001/REC-SVG-20010904/DTD/svg10.dtd">
<svg version="1.0" xmlns="http://www.w3.org/2000/svg"
 width="600.000000pt" height="600.000000pt" viewBox="0 0 600.000000 600.000000"
 preserveAspectRatio="xMidYMid meet">

<g transform="translate(0.000000,600.000000) scale(0.100000,-0.100000)"
fill="#000000" stroke="none">
<path d="M2640 4220 c-647 -42 -1207 -171 -1629 -375 -382 -186 -603 -409
-657 -665 -28 -133 0 -286 78 -418 49 -84 226 -257 338 -331 808 -534 2504
-678 3745 -320 818 237 1255 656 1141 1098 -31 121 -89 215 -206 332 -60 60
-142 130 -191 162 -395 261 -979 434 -1703 503 -191 18 -725 26 -916 14z m750
-200 c741 -51 1361 -220 1748 -477 120 -79 250 -210 290 -293 90 -183 54 -336
-118 -510 -302 -305 -940 -523 -1770 -606 -219 -22 -792 -25 -1010 -6 -1000
90 -1756 392 -1947 778 -86 176 -41 338 145 516 98 94 203 163 367 243 385
187 915 312 1505 354 168 12 622 12 790 1z"/>
<path d="M2065 3103 c-71 -168 -133 -315 -137 -325 -7 -18 -3 -19 54 -16 l62
3 22 55 22 55 107 3 106 3 26 -61 26 -60 64 0 c35 0 62 4 59 8 -3 4 -64 147
-136 318 -73 170 -135 312 -138 316 -4 4 -65 -131 -137 -299z m164 -46 c17
-43 31 -80 31 -83 0 -2 -30 -4 -66 -4 -36 0 -64 3 -62 8 2 4 17 41 33 84 17
42 31 76 31 75 1 -1 16 -37 33 -80z"/>
<path d="M1130 3074 l0 -316 133 4 c142 4 185 17 234 70 75 80 69 222 -11 297
-23 22 -24 26 -11 45 21 30 19 114 -4 152 -32 52 -72 64 -215 64 l-126 0 0
-316z m228 210 c26 -18 29 -60 5 -86 -11 -13 -30 -18 -65 -18 l-48 0 0 60 0
60 43 0 c23 0 53 -7 65 -16z m12 -211 c57 -33 68 -113 22 -164 -24 -27 -37
-33 -85 -37 l-57 -4 0 111 0 111 46 0 c25 0 59 -7 74 -17z"/>
<path d="M1680 3075 l0 -315 65 0 65 0 0 315 0 315 -65 0 -65 0 0 -315z"/>
<path d="M2590 3075 l0 -315 60 0 60 0 0 120 0 120 50 0 49 0 71 -120 71 -120
64 0 c36 0 65 3 65 8 -1 4 -36 66 -80 137 l-79 130 24 25 c55 60 70 136 40
208 -41 96 -96 121 -267 122 l-128 0 0 -315z m222 205 c105 -30 85 -159 -28
-176 -71 -10 -74 -6 -74 89 0 46 3 87 7 90 9 10 53 8 95 -3z"/>
<path d="M3170 3075 l0 -315 60 0 60 0 0 120 0 120 50 0 49 0 71 -120 71 -120
64 0 c36 0 65 3 65 8 -1 4 -36 66 -80 137 l-79 130 24 25 c55 60 70 136 40
208 -41 96 -96 121 -267 122 l-128 0 0 -315z m222 205 c105 -30 85 -159 -28
-176 -71 -10 -74 -6 -74 89 0 46 3 87 7 90 9 10 53 8 95 -3z"/>
<path d="M3760 3075 l0 -315 65 0 65 0 0 315 0 315 -65 0 -65 0 0 -315z"/>
<path d="M4020 3335 l0 -54 78 -3 77 -3 3 -257 2 -258 60 0 60 0 2 258 3 257
78 3 77 3 0 54 0 55 -220 0 -220 0 0 -55z"/>
<path d="M4570 3335 l0 -55 110 0 c61 0 110 -2 110 -5 0 -3 -56 -118 -125
-255 -69 -137 -125 -252 -125 -255 0 -3 95 -5 210 -5 l210 0 0 55 0 55 -120 0
c-66 0 -120 2 -120 5 0 3 56 118 125 255 69 137 125 252 125 255 0 3 -90 5
-200 5 l-200 0 0 -55z"/>
</g>
</svg>
