<?xml version="1.0" encoding="UTF-8"?>
<svg version="1.1" xmlns="http://www.w3.org/2000/svg" width="1344" height="512">
<path d="M0 0 C1.01664734 0.26201706 1.01664734 0.26201706 2.05383301 0.52932739 C25.06921627 6.47284209 47.81158471 14.10866829 69.125 24.6875 C70.08921875 25.15881348 71.0534375 25.63012695 72.046875 26.11572266 C95.70347169 37.74713036 117.48182614 51.77304452 136.90625 69.65234375 C138.90199099 71.4829442 140.93730611 73.24586483 143 75 C146.52902407 78.07805345 149.86911864 81.32362805 153.1875 84.625 C153.67009277 85.10300049 154.15268555 85.58100098 154.64990234 86.07348633 C185.21498472 116.76742656 207.28200251 155.33543879 230.84580994 191.37757874 C232.44185957 193.81874395 234.03839885 196.25958855 235.63516235 198.70028687 C236.41801617 199.89698035 237.20071151 201.09377752 237.98324585 202.29067993 C243.07513061 210.07664554 248.2159383 217.82770751 253.39794922 225.55395508 C260.25194017 235.77412086 267.08064836 245.96090413 273.125 256.6875 C273.49383301 257.33235352 273.86266602 257.97720703 274.24267578 258.64160156 C278.84239918 266.73295941 282.81373652 274.89599915 286.0625 283.625 C286.48619873 284.75953613 286.48619873 284.75953613 286.91845703 285.91699219 C293.95390338 305.66455405 293.06723772 326.77015441 284.5625 345.875 C278.08773061 357.9601489 268.03088859 367.3503076 254.875 371.5625 C235.46935407 376.15425847 217.42327202 369.16078307 200.90527344 359.37207031 C196.12758532 356.38464737 191.57640828 353.1400321 187.125 349.6875 C186.5563623 349.24680176 185.98772461 348.80610352 185.40185547 348.35205078 C170.1803671 336.24578298 164.18288503 320.40389478 162 301.49609375 C161.61219678 298.00622288 161.26271705 294.51294974 160.91601562 291.01879883 C159.14407107 273.51678228 155.83755241 257.22374886 141.57421875 245.40625 C130.10142777 237.35516861 117.78240882 235.53437571 104.125 237.6875 C94.49387807 240.27997773 85.62507458 245.42048901 80.41015625 254.078125 C70.94331568 273.29955205 76.55042005 291.62049788 82.05517578 311.09912109 C88.04081543 332.35635445 85.81642884 352.50448199 75.3203125 371.87109375 C69.22585996 382.65713509 61.68692408 391.8126401 53.125 400.6875 C52.40828125 401.46738281 51.6915625 402.24726563 50.953125 403.05078125 C39.34149464 415.33902917 23.73159591 427.21211894 6.3125 428.0625 C-1.08980306 427.8689013 -8.15526903 425.65115502 -13.75 420.6875 C-20.6363857 412.72226606 -23.12665986 401.19782918 -26.0546875 391.3046875 C-26.61846603 389.42500778 -26.61846603 389.42500778 -27.19363403 387.50735474 C-27.98580875 384.86464416 -28.77367047 382.22070163 -29.55810547 379.57568359 C-30.53837219 376.27087036 -31.52728432 372.96872865 -32.5191679 369.66738605 C-36.43244891 356.63508919 -40.24487892 343.57869038 -43.79296875 330.44140625 C-44.07127533 329.41212006 -44.34958191 328.38283386 -44.63632202 327.32235718 C-52.58702677 297.49239871 -53.81161781 266.88484269 -46.875 236.6875 C-46.64425781 235.66897949 -46.41351562 234.65045898 -46.17578125 233.60107422 C-43.48596376 221.94697742 -40.371063 210.41143896 -37.15234375 198.89453125 C-36.18448095 195.42980313 -35.2168491 191.96501116 -34.25 188.5 C-34.01032501 187.64164551 -33.77065002 186.78329102 -33.52371216 185.89892578 C-29.64047013 171.94675522 -26.1967566 157.9981569 -23.875 143.6875 C-23.67777344 142.47578125 -23.48054688 141.2640625 -23.27734375 140.015625 C-19.45466162 106.89684184 -26.44337806 78.03905545 -41.14282227 48.5144043 C-46.74836854 37.1949584 -49.20936262 25.25207765 -46.15234375 12.7265625 C-45.22688331 10.53093571 -44.20899215 8.65777131 -42.875 6.6875 C-42.153125 5.594375 -41.43125 4.50125 -40.6875 3.375 C-29.40945127 -7.40180212 -13.71750217 -3.63998289 0 0 Z M49.125 135.6875 C43.33060667 145.11722927 43.24882713 155.0038255 45.5625 165.5 C47.06308762 172.41937625 47.54789222 179.08823195 47.57006836 186.1652832 C47.68688194 191.44760463 48.60562418 194.49683583 52.125 198.6875 C54.41257567 200.02857361 54.41257567 200.02857361 57.125 199.6875 C61.99330252 197.70411749 64.38747489 195.56100556 67.4375 191.3125 C70.65783808 186.87266882 74.08030616 184.5311107 78.890625 181.9765625 C81.07773676 180.71476726 82.56755561 179.66880584 84.125 177.6875 C85.60181131 166.61141516 80.38365613 153.7218878 74.125 144.6875 C69.71619837 138.927614 65.89729649 134.64772092 58.6875 132.8125 C54.34855827 132.66025643 52.59756439 133.06378468 49.125 135.6875 Z " fill="#FFFFFF" transform="translate(1052.875,48.3125)"/>
<path d="M0 0 C14.62737231 8.94939488 23.6790902 22.89955862 32.57495117 37.14550781 C33.08646729 37.96374023 33.5979834 38.78197266 34.125 39.625 C34.89710815 40.86008301 34.89710815 40.86008301 35.68481445 42.12011719 C39.69195194 48.47229407 44.02068225 54.37577545 48.703125 60.25292969 C79.20982452 98.72749743 107.15335632 140.74078276 107.390625 191.5859375 C107.39759399 192.59277588 107.40456299 193.59961426 107.41174316 194.63696289 C107.42921633 197.92468419 107.43547863 201.21223399 107.4375 204.5 C107.43850708 205.62948059 107.43951416 206.75896118 107.44055176 207.92266846 C107.42144747 239.79930282 105.60031129 271.6736649 100.1875 303.125 C100.03120117 304.03362793 99.87490234 304.94225586 99.71386719 305.87841797 C83.14676703 397.82067878 83.14676703 397.82067878 59.1875 419.125 C55.54479664 420.94635168 51.85009005 420.64642161 48.0078125 419.44140625 C34.73333851 413.90654772 27.16845425 404.45907569 21.47265625 391.47265625 C17.77743116 381.84710032 16.06305569 371.92056627 15.9375 361.625 C15.89882813 359.75328125 15.89882813 359.75328125 15.859375 357.84375 C16.36559701 345.11629309 20.64085349 332.94736944 24.6875 321 C31.45699817 301.42272844 31.45699817 301.42272844 33.5625 280.9375 C33.54944824 279.65069336 33.54944824 279.65069336 33.53613281 278.33789062 C33.36614407 271.00886782 32.57060202 264.69965303 28.4375 258.5 C23.12524519 255.25362206 16.33026216 257.58042948 10.6472168 258.90209961 C9.58801025 259.16128174 8.52880371 259.42046387 7.4375 259.6875 C5.78391479 260.09077515 5.78391479 260.09077515 4.09692383 260.50219727 C-10.52712217 264.18333872 -24.10512367 268.8632383 -36.8125 277.125 C-38.33210876 278.08527394 -39.85281006 279.04382293 -41.375 280 C-41.97441406 280.38929688 -42.57382812 280.77859375 -43.19140625 281.1796875 C-46.06340711 282.85444463 -48.73277942 283.28312042 -51.98046875 283.51953125 C-53.19766602 283.62297852 -53.19766602 283.62297852 -54.43945312 283.72851562 C-56.12616223 283.86617991 -57.81370518 283.99403377 -59.50195312 284.11132812 C-65.82883419 284.6747147 -71.72832828 286.06066062 -76.36914062 290.67163086 C-86.1899799 302.52575042 -83.35268015 321.46150681 -82.3125 335.6875 C-79.60458741 374.18695287 -81.79546469 418.27167598 -107.859375 449.18554688 C-113.78933092 455.85674728 -119.75536399 460.402552 -128.75 461.6875 C-140.52971092 460.78864656 -151.66234766 453.71509919 -159.6875 445.4375 C-170.63128488 432.61091342 -170.87145758 417.12562151 -169.8125 401.125 C-167.91217358 384.11547305 -162.56443494 367.49005899 -157.73510742 351.12915039 C-153.82242816 337.79759886 -150.21374164 324.37720126 -150.25 310.375 C-150.2509668 309.39748779 -150.25193359 308.41997559 -150.25292969 307.4128418 C-150.70453003 287.15423621 -155.66201378 266.85693525 -159.54492188 247.03759766 C-166.45501283 211.05619055 -162.44828224 174.28989553 -142.2578125 143.03125 C-133.6892366 130.49759473 -122.80052863 119.99348102 -111.984375 109.42382812 C-105.80161043 103.3144623 -100.15991984 96.97710215 -94.8125 90.125 C-94.32539551 89.50230225 -93.83829102 88.87960449 -93.33642578 88.23803711 C-81.34805209 72.58983077 -73.2900238 55.25665674 -65.8125 37.125 C-58.96506806 20.59888554 -51.68302424 4.31254963 -34.8125 -3.875 C-22.84128429 -8.57053708 -10.97713381 -5.7902944 0 0 Z M-29.3125 140.5 C-38.20460292 151.32262526 -41.5976464 166.02629901 -45.8125 179.125 C-47.19803458 183.42009125 -48.59605421 187.71089629 -50 192 C-50.32081543 193.00393799 -50.64163086 194.00787598 -50.97216797 195.04223633 C-52.76691284 200.52144323 -54.87825985 205.17506444 -57.8125 210.125 C-58.56295506 213.71043666 -58.56295506 213.71043666 -57.8125 217.125 C-54.54885149 221.47653135 -50.94771965 223.4712852 -45.8125 225.125 C-37.23024647 226.10984877 -30.15925392 223.10789578 -23.3125 218 C-10.06978807 207.00340176 1.68480539 193.49682678 3.42578125 175.6875 C3.77771572 163.53649949 -1.05386167 146.50595694 -9.37890625 137.28125 C-12.07717054 134.89049255 -13.00598548 134.1983195 -16.5625 133.875 C-22.1323105 134.30344696 -25.51869398 136.54777131 -29.3125 140.5 Z " fill="#FFFFFF" transform="translate(483.8125,50.875)"/>
<path d="M0 0 C1.0421315 0.13621262 1.0421315 0.13621262 2.10531616 0.275177 C2.80208466 0.36671051 3.49885315 0.45824402 4.21673584 0.55255127 C22.91039808 2.93257839 41.7574439 2.83660999 60.57333946 2.93633842 C95.20895017 3.12065959 123.33707456 6.40843055 151.91781616 27.275177 C152.49596069 27.69637817 153.07410522 28.11757935 153.66976929 28.55154419 C163.79665536 36.02397591 172.88945981 44.52991839 181.91781616 53.275177 C182.67207886 53.99689087 183.42634155 54.71860474 184.20346069 55.46218872 C201.01314611 71.57833012 219.29968009 90.49362246 220.94125366 115.056427 C220.86521392 125.49921834 216.87149381 134.65897046 210.01937866 142.42752075 C196.27499531 155.73760203 176.79691165 159.61661929 158.60531616 162.60720825 C157.30815674 162.82187241 156.01099731 163.03653656 154.67453003 163.25770569 C144.45402445 164.93002357 134.2089024 166.40202461 123.94906616 167.81033325 C123.19143478 167.91446281 122.43380341 168.01859238 121.6532135 168.12587738 C114.65702311 169.08604471 107.65971555 170.03780906 100.66049194 170.97561646 C96.7667184 171.49782676 92.87443377 172.03016259 88.98286438 172.56854057 C87.53242598 172.76723419 86.08147922 172.96226095 84.62998962 173.15312386 C67.21644158 175.44464444 52.81484669 178.64736125 40.99203491 192.45095825 C29.14356834 208.58361612 28.69646513 228.98265796 28.92562866 248.20095825 C28.93867513 250.19636642 28.95170077 252.19177493 28.9636364 254.18719006 C28.99367365 259.02825438 29.03343055 263.86915422 29.08920288 268.70999146 C29.27909206 285.78158445 28.80401084 302.40052638 25.91781616 319.275177 C25.70383179 320.57173218 25.48984741 321.86828735 25.26937866 323.20413208 C24.68889816 326.49297542 24.04522299 329.7576566 23.35531616 333.025177 C23.10338501 334.22086304 22.85145386 335.41654907 22.59188843 336.64846802 C17.6413672 359.31955538 10.7097656 381.45164059 3.23031616 403.400177 C2.96645111 404.17706879 2.70258606 404.95396057 2.4307251 405.75439453 C-7.87699335 435.96537 -7.87699335 435.96537 -14.83218384 446.650177 C-15.24919556 447.30026733 -15.66620728 447.95035767 -16.09585571 448.62014771 C-23.11981661 459.19653162 -32.17893894 468.63234371 -45.08218384 471.275177 C-53.96471602 471.87738257 -60.3401773 470.07244103 -67.26968384 464.337677 C-72.48471687 459.35784764 -75.45106149 453.93578043 -78.08218384 447.275177 C-78.34773071 446.61002075 -78.61327759 445.9448645 -78.88687134 445.259552 C-83.95784674 429.28250622 -77.72303445 411.01467192 -73.29464722 395.58557129 C-63.59954771 361.58221318 -59.47720753 327.49332747 -59.70718384 292.150177 C-59.7141629 290.22144745 -59.7141629 290.22144745 -59.72128296 288.25375366 C-59.80649456 268.08981718 -60.46440175 248.2827602 -63.08218384 228.275177 C-63.27763353 226.73596916 -63.47294047 225.19674318 -63.66812134 223.65750122 C-70.97643296 158.64014921 -70.97643296 158.64014921 -94.08218384 98.275177 C-94.63390259 97.27744263 -95.18562134 96.27970825 -95.75405884 95.2517395 C-104.31354238 80.70061749 -116.67342431 72.69788454 -131.19595337 64.92068481 C-145.78344018 57.08948226 -159.5507544 49.31549156 -165.41812134 32.81033325 C-167.38655122 25.29556269 -166.47768787 19.30621782 -162.68765259 12.5329895 C-157.28835423 4.93981565 -147.9819151 1.15459189 -139.08218384 -0.724823 C-137.26097728 -0.83300593 -135.43647579 -0.89055605 -133.61221313 -0.91427612 C-131.95920952 -0.93939774 -131.95920952 -0.93939774 -130.27281189 -0.96502686 C-129.07939682 -0.97857208 -127.88598175 -0.99211731 -126.65640259 -1.006073 C-125.41388229 -1.02421051 -124.171362 -1.04234802 -122.89118958 -1.06103516 C-120.23063769 -1.09961474 -117.57012067 -1.1366518 -114.90951538 -1.17092896 C-108.01510677 -1.25984977 -101.12089829 -1.36220707 -94.22671509 -1.4670105 C-93.55214264 -1.47712536 -92.87757019 -1.48724022 -92.18255615 -1.49766159 C-82.09895185 -1.65069282 -72.03290253 -1.93259608 -61.95718384 -2.349823 C-41.19691172 -3.11525172 -20.603544 -2.69501916 0 0 Z M49.39047241 59.32937622 C39.03786288 59.58084918 28.78530722 60.05628323 18.54281616 61.650177 C17.43075806 61.8209375 17.43075806 61.8209375 16.29623413 61.99514771 C8.56614713 63.30980625 0.84670668 64.75164544 -4.08218384 71.275177 C-10.24758712 84.51937665 -12.52308152 103.61749087 -8.36734009 117.697052 C-6.78352732 121.42207087 -5.42638408 123.04336868 -2.01968384 125.337677 C11.96237543 129.82137533 28.47026631 119.56708091 40.60531616 113.650177 C52.52677587 107.85658842 63.35117661 104.46352439 76.4468689 102.4836731 C83.91768732 101.27132105 90.09923499 99.16250406 95.48031616 93.650177 C98.08923891 89.3397829 98.64158756 85.20846941 97.91781616 80.275177 C95.60203781 73.53553508 92.15937512 67.90187519 85.91781616 64.275177 C73.87939874 59.05349246 62.26873291 59.05320023 49.39047241 59.32937622 Z " fill="#FFFFFF" transform="translate(704.0821838378906,2.724822998046875)"/>
<path d="M0 0 C5.10503878 4.05727973 8.11463247 8.78096701 9.30859375 15.2265625 C11.91978526 42.59184949 -3.63811137 68.88469036 -20.19848633 89.49243164 C-35.53395987 108.05528973 -55.1890535 115.14885002 -77.44116211 122.27636719 C-96.65782516 128.46720693 -114.22773778 134.74363037 -124.2109375 153.421875 C-142.25829387 194.53277139 -115.12224071 250.35261274 -101.8298645 289.59127808 C-98.15882406 300.42842692 -94.67211404 311.23576931 -92.2109375 322.421875 C-91.96988281 323.50339844 -91.72882813 324.58492188 -91.48046875 325.69921875 C-87.69552857 345.84322922 -89.04410742 368.77107906 -100.2109375 386.421875 C-108.09513699 397.90467177 -118.97717333 406.22827295 -132.6484375 409.796875 C-144.58860651 411.89505687 -156.19854475 410.7649608 -166.33984375 403.84765625 C-176.22877527 396.31224914 -181.3503291 386.14220455 -183.734375 373.9921875 C-186.4658924 353.52819647 -180.85947381 334.04900475 -176.0234375 314.296875 C-167.14372174 277.77249836 -169.5077021 238.15896177 -187.2109375 204.421875 C-192.34957236 196.23509537 -199.71003726 188.15942253 -209.2109375 185.421875 C-218.77681707 183.74940913 -226.37418166 187.28360776 -234.2109375 192.421875 C-241.41177778 197.49030223 -248.31471203 202.95043179 -255.2109375 208.421875 C-256.46180364 209.40810525 -257.71305247 210.39385051 -258.96484375 211.37890625 C-260.60948573 212.673868 -262.25397302 213.96900306 -263.89672852 215.26635742 C-318.5434954 258.29978531 -318.5434954 258.29978531 -342.3984375 257.421875 C-351.20474416 256.31818221 -358.1909345 252.681667 -363.74609375 245.71484375 C-366.41328174 241.53980549 -367.90042465 237.17660002 -369.2109375 232.421875 C-369.54931641 231.21144531 -369.54931641 231.21144531 -369.89453125 229.9765625 C-375.54609127 205.10969842 -368.44648716 178.66215829 -355.2109375 157.421875 C-339.65245984 134.51711435 -317.95054762 116.7336261 -290.46166992 110.84545898 C-279.94772281 108.86675216 -269.51606128 108.05212739 -258.85415649 107.5887146 C-207.60183837 105.29429542 -172.75080771 86.36847622 -134.03759766 53.5012207 C-129.81840447 49.92256304 -125.5555676 46.40213148 -121.2578125 42.91796875 C-118.95760588 41.03356871 -116.68095691 39.13074616 -114.4140625 37.20703125 C-88.24389609 15.11424674 -35.49713643 -24.04188523 0 0 Z " fill="#FFFFFF" transform="translate(371.2109375,43.578125)"/>
<path d="M0 0 C3 2.25 3 2.25 5 5 C5.42539062 5.54140625 5.85078125 6.0828125 6.2890625 6.640625 C16.04062024 20.21296853 14.64935784 41.45568997 12.34375 57.1796875 C11.4579316 62.17783531 10.2706593 67.08736225 9 72 C8.58210205 73.62035156 8.58210205 73.62035156 8.15576172 75.2734375 C5.67298596 84.8473833 5.67298596 84.8473833 4.46264648 89.27514648 C-0.33892111 107.0868095 -0.83069449 123.20153484 1.5 141.375 C4.08706329 162.23443496 3.71330866 181.45334496 -0.7734375 202.00390625 C-1.92356849 207.33024927 -2.55381731 212.57614565 -3 218 C-4.36401698 232.32138798 -13.33529425 243.79685461 -23.5625 253.5625 C-31.39570887 261.08015306 -37.29249708 270.27684834 -43 279.4375 C-62.1573898 310.18034572 -62.1573898 310.18034572 -73.92578125 313.6484375 C-85.00065226 315.52553428 -93.50530438 309.41907125 -102.2734375 303.453125 C-109.59644359 297.76100673 -112.52714349 289.89701129 -114 281 C-114.27689155 278.17927046 -114.33435856 275.39568158 -114.3125 272.5625 C-114.30686035 271.7573999 -114.3012207 270.9522998 -114.29541016 270.12280273 C-113.61956775 234.60761887 -103.76285619 199.75828209 -92.8828125 166.19140625 C-92.51112442 165.04299759 -92.13943634 163.89458893 -91.75648499 162.71138 C-89.88289111 156.93273193 -87.99367022 151.15989677 -86.07885742 145.39477539 C-79.29267237 124.78055443 -73.69832681 104.45986657 -74.04296875 82.64453125 C-74.06536357 80.22331554 -74.08681825 77.80209099 -74.10742188 75.38085938 C-74.14440257 71.60025702 -74.18738026 67.82011485 -74.24682617 64.03979492 C-74.30178327 60.36630862 -74.33053584 56.69332877 -74.35546875 53.01953125 C-74.37925095 51.90866653 -74.40303314 50.79780182 -74.42753601 49.65327454 C-74.47018653 36.67212437 -70.63133432 24.44003363 -61.91796875 14.6640625 C-45.58845257 -1.20508589 -21.53513365 -8.98524728 0 0 Z " fill="#FFFFFF" transform="translate(949,185)"/>
</svg>
