<?xml version="1.0" standalone="no"?>
<!DOCTYPE svg PUBLIC "-//W3C//DTD SVG 20010904//EN"
 "http://www.w3.org/TR/2001/REC-SVG-20010904/DTD/svg10.dtd">
<svg version="1.0" xmlns="http://www.w3.org/2000/svg"
 width="1344.000000pt" height="512.000000pt" viewBox="0 0 1344.000000 512.000000"
 preserveAspectRatio="xMidYMid meet">

<g transform="translate(0.000000,512.000000) scale(0.100000,-0.100000)"
fill="#000000" stroke="none">
<path d="M6535 5112 c-16 -1 -228 -6 -470 -11 -272 -5 -453 -13 -475 -19 -70
-23 -143 -75 -175 -126 -26 -43 -30 -59 -30 -120 1 -58 6 -81 29 -125 54 -105
121 -157 371 -292 77 -42 120 -73 186 -139 170 -168 250 -360 338 -810 103
-533 141 -881 141 -1299 0 -437 -33 -663 -164 -1136 -78 -277 -51 -457 87
-581 125 -112 282 -92 419 54 108 116 168 237 282 570 110 320 175 564 224
832 25 139 26 161 27 540 2 440 8 492 69 625 41 88 129 185 199 219 81 40 142
51 612 116 242 34 483 70 535 82 242 52 390 138 457 265 109 205 31 421 -260
720 -347 355 -606 521 -882 564 -38 6 -254 14 -480 19 -303 6 -436 13 -510 25
-91 15 -456 34 -530 27z m1298 -642 c80 -25 137 -73 167 -141 60 -141 -19
-230 -236 -263 -125 -20 -175 -37 -361 -124 -183 -86 -243 -106 -313 -106 -70
0 -97 15 -121 69 -30 67 -28 235 3 380 17 81 42 120 90 143 66 32 188 53 353
62 199 11 339 4 418 -20z"/>
<path d="M3365 4734 c-134 -22 -303 -86 -437 -167 -135 -81 -243 -163 -528
-401 -518 -433 -733 -532 -1205 -556 -324 -17 -467 -45 -623 -124 -92 -46
-173 -109 -268 -208 -134 -139 -215 -279 -270 -463 -24 -79 -27 -108 -28 -235
-2 -253 52 -382 184 -438 174 -75 374 5 773 312 66 50 185 142 265 204 177
135 263 182 336 182 73 0 140 -35 206 -106 70 -76 111 -153 159 -301 59 -179
75 -287 75 -498 0 -197 -8 -258 -69 -490 -66 -250 -79 -384 -50 -520 52 -245
244 -381 477 -336 326 64 500 390 433 811 -19 119 -40 194 -121 434 -88 259
-209 669 -235 791 -27 129 -35 291 -20 381 28 158 124 287 272 364 42 22 170
71 285 110 326 110 409 160 541 327 177 222 285 469 287 653 0 91 -15 141 -60
190 -53 59 -119 82 -244 85 -58 2 -118 1 -135 -1z"/>
<path d="M4498 4647 c-135 -57 -220 -168 -313 -408 -87 -221 -195 -413 -315
-559 -30 -36 -126 -139 -215 -230 -89 -91 -184 -199 -212 -240 -101 -151 -169
-310 -202 -478 -44 -217 -38 -358 30 -710 62 -327 72 -411 66 -552 -6 -131
-22 -204 -106 -496 -62 -216 -83 -319 -88 -444 -9 -187 24 -288 124 -389 68
-67 183 -128 258 -137 73 -9 140 22 209 97 137 148 231 370 267 636 15 106 17
377 5 608 -7 145 -6 180 8 235 33 132 96 183 239 194 121 10 130 13 214 68 92
60 171 97 285 133 95 30 289 75 325 75 59 0 103 -107 103 -251 0 -97 -30 -232
-84 -383 -75 -207 -90 -278 -90 -421 1 -98 6 -149 22 -206 57 -211 191 -360
337 -376 38 -5 46 -2 84 33 81 73 162 276 282 710 81 295 102 392 129 598 31
235 40 377 47 692 6 316 -1 414 -42 591 -65 275 -185 496 -488 896 -84 111
-179 245 -212 297 -140 224 -243 334 -371 396 -63 30 -89 37 -157 41 -70 3
-90 0 -139 -20z m214 -1388 c33 -15 51 -42 98 -154 76 -178 77 -277 4 -424
-46 -93 -190 -244 -272 -285 -98 -49 -193 -44 -251 15 -40 39 -40 74 -2 142
16 28 55 133 86 232 66 212 86 268 120 335 60 118 145 173 217 139z"/>
<path d="M10194 4646 c-90 -42 -134 -125 -134 -255 0 -100 9 -128 95 -311 131
-279 160 -408 152 -685 -6 -216 -26 -320 -140 -736 -127 -460 -147 -570 -147
-806 0 -260 27 -379 252 -1118 70 -231 82 -258 137 -308 67 -60 166 -80 266
-53 208 55 520 354 634 607 55 122 65 174 65 314 1 124 -1 137 -47 300 -56
202 -66 293 -43 382 31 125 89 199 195 252 168 85 374 50 510 -86 98 -99 130
-188 156 -438 28 -271 69 -380 185 -495 107 -106 296 -222 440 -269 304 -101
567 58 652 391 29 115 22 286 -17 408 -41 131 -143 327 -267 517 -62 95 -234
358 -383 585 -299 456 -387 583 -514 738 -113 139 -321 347 -451 450 -349 278
-783 483 -1282 605 -172 42 -242 45 -314 11z m983 -1368 c68 -41 124 -130 168
-264 43 -133 36 -159 -65 -216 -25 -15 -62 -49 -83 -76 -41 -54 -96 -87 -128
-77 -39 13 -59 63 -59 151 0 44 -9 125 -21 180 -23 112 -20 179 13 256 33 77
97 94 175 46z"/>
<path d="M9200 3295 c-161 -36 -335 -156 -394 -273 -52 -103 -57 -144 -54
-459 4 -374 6 -361 -181 -942 -138 -429 -203 -729 -217 -1006 -13 -242 35
-340 216 -438 86 -47 126 -53 190 -32 60 20 144 97 201 185 155 238 218 327
290 405 97 107 162 195 182 250 9 22 18 72 21 110 4 39 20 140 37 225 27 138
30 170 26 290 -2 74 -12 206 -22 293 -23 193 -15 291 40 497 65 244 85 355 85
477 0 235 -57 366 -179 408 -66 23 -165 27 -241 10z"/>
</g>
</svg>
